<?xml version="1.0" encoding="UTF-8"?>
<svg width="266px" height="408px" viewBox="0 0 266 408" version="1.1" xmlns="http://www.w3.org/2000/svg" xmlns:xlink="http://www.w3.org/1999/xlink">
    <title>形状结合</title>
    <g id="dashboard" stroke="none" stroke-width="1" fill="none" fill-rule="evenodd">
        <g id="w-Dashboard" transform="translate(-1150.000000, -158.000000)" fill="">
            <g id="容器" transform="translate(1150.000000, 158.000000)">
                <path d="M250,0 C254.058217,-7.45482375e-16 257.763552,1.51086737 260.584197,4.00079355 L262.016617,4 L262.016793,5.43575906 C264.496245,8.25391346 266,11.9513463 266,16 L266,392 C266,400.836556 258.836556,408 250,408 L16,408 C7.163444,408 1.082166e-15,400.836556 0,392 L0,16 C-1.082166e-15,7.163444 7.163444,-9.03489203e-15 16,0 L250,0 Z M16,4 C9.372583,4 4,9.372583 4,16 L4,16 L4,392 C4,398.627417 9.372583,404 16,404 L16,404 L250,404 C256.627417,404 262,398.627417 262,392 L262,392 L262.001495,56.2889737 C261.82003,52.0254705 260.011942,47.9821623 256.933766,45.0007356 L256.933766,45.0007356 L219.345155,8.59356386 C216.30334,5.64735607 212.234711,4 208,4 L208,4 Z" id="形状结合"></path>
            </g>
        </g>
    </g>
</svg>