<?xml version="1.0" encoding="UTF-8"?>
<svg width="54px" height="85px" viewBox="0 0 54 85" version="1.1" xmlns="http://www.w3.org/2000/svg" xmlns:xlink="http://www.w3.org/1999/xlink">
    <title>形状结合</title>
    <g id="dashboard" stroke="none" stroke-width="1" fill="none" fill-rule="evenodd">
        <g id="w-Dashboard" transform="translate(-1326.000000, -446.000000)" fill="">
            <g id="编组-13" transform="translate(1150.000000, 158.000000)">
                <path d="M203.434757,345.582378 L203.434757,358.897063 C195.979237,358.897063 189.901352,364.721359 189.73396,371.984927 L189.730417,372.292683 L176,372.292683 C176,357.696303 188.030489,345.821985 202.980832,345.585958 L203.434757,345.582378 Z M230,345.582378 L230,358.897063 C222.54448,358.897063 216.466595,364.721359 216.299203,371.984927 L216.29566,372.292683 L202.565243,372.292683 C202.565243,357.696303 214.595732,345.821985 229.546075,345.585958 L230,345.582378 Z M203.434757,316.93753 L203.434757,330.252216 C195.979237,330.252216 189.901352,336.076511 189.73396,343.34008 L189.730417,343.647836 L176,343.647836 C176,329.051456 188.030489,317.177138 202.980832,316.941111 L203.434757,316.93753 Z M230,316.93753 L230,330.252216 C222.54448,330.252216 216.466595,336.076511 216.299203,343.34008 L216.29566,343.647836 L202.565243,343.647836 C202.565243,329.051456 214.595732,317.177138 229.546075,316.941111 L230,316.93753 Z M203.434757,288.292683 L203.434757,301.607368 C195.979237,301.607368 189.901352,307.431664 189.73396,314.695233 L189.730417,315.002988 L176,315.002988 C176,300.406608 188.030489,288.53229 202.980832,288.296264 L203.434757,288.292683 Z M230,288.292683 L230,301.607368 C222.54448,301.607368 216.466595,307.431664 216.299203,314.695233 L216.29566,315.002988 L202.565243,315.002988 C202.565243,300.406608 214.595732,288.53229 229.546075,288.296264 L230,288.292683 Z" id="形状结合"></path>
            </g>
        </g>
    </g>
</svg>