<?xml version="1.0" encoding="UTF-8"?>
<svg width="120px" height="120px" viewBox="0 0 120 120" version="1.1" xmlns="http://www.w3.org/2000/svg" xmlns:xlink="http://www.w3.org/1999/xlink">
    <title>编组 26</title>
    <defs>
        <linearGradient x1="50.0469301%" y1="1.01458889%" x2="54.6059459%" y2="99.5765953%" id="linearGradient-1">
            <stop stop-color="#64C5FF" offset="0%"></stop>
            <stop stop-color="#000EFF" offset="100%"></stop>
        </linearGradient>
    </defs>
    <g id="页面-1" stroke="none" stroke-width="1" fill="none" fill-rule="evenodd">
        <g id="Dashboard" transform="translate(-353.000000, -498.000000)" fill-rule="nonzero">
            <g id="容器2" transform="translate(280.000000, 446.000000)">
                <g id="编组-26" transform="translate(73.000000, 52.000000)">
                    <path d="M60,0 C26.862915,0 0,26.862915 0,60 C0,93.137085 26.862915,120 60,120 C93.137085,120 120,93.137085 120,60 C120,26.862915 93.137085,0 60,0 Z M60,12.2033898 C86.3973389,12.2033898 107.79661,33.6026611 107.79661,60 C107.79661,86.3973389 86.3973389,107.79661 60,107.79661 C33.6026611,107.79661 12.2033898,86.3973389 12.2033898,60 C12.2033898,33.6026611 33.6026611,12.2033898 60,12.2033898 Z" id="椭圆形" fill="#747BFF" opacity="0.05"></path>
                    <path d="M60.956692,0 C77.32951,0 92.6926604,6.39206163 104.046053,17.5602466 C106.640727,20.1125933 106.652824,24.2627331 104.073072,26.8298432 C101.49332,29.3969533 97.2986198,29.4089214 94.7039462,26.8565748 C85.8105192,18.1082264 73.795597,13.1092437 60.956692,13.1092437 C34.6004872,13.1092437 13.25,34.1114401 13.25,60 C13.25,85.8885599 34.6004872,106.890756 60.956692,106.890756 C64.6155785,106.890756 67.581692,109.82536 67.581692,113.445378 C67.581692,117.065396 64.6155785,120 60.956692,120 C27.2997669,120 0,93.1455747 0,60 C0,26.8544253 27.2997669,0 60.956692,0 Z" id="路径" fill="url(#linearGradient-1)"></path>
                </g>
            </g>
        </g>
    </g>
</svg>