<?xml version="1.0" encoding="UTF-8"?>
<svg width="56px" height="52px" viewBox="0 0 56 52" version="1.1" xmlns="http://www.w3.org/2000/svg" xmlns:xlink="http://www.w3.org/1999/xlink">
    <title>形状结合</title>
    <g id="dashboard" stroke="none" stroke-width="1" fill="none" fill-rule="evenodd">
        <g id="w-Dashboard" transform="translate(-1186.000000, -194.000000)" fill="">
            <g id="编组-13" transform="translate(1150.000000, 158.000000)">
                <path d="M55.137045,62.3684363 C61.9371998,63.9470687 66.7444458,69.8694591 66.745098,76.6693917 C66.7455329,83.294802 61.1966535,88.3505849 54.3240964,87.9809581 C51.5862926,87.8336648 49.1248349,86.9385419 46.7979626,85.2958037 C48.0746767,83.6916577 49.2950779,82.1567631 50.5172186,80.6229405 C50.7629077,80.3146323 51.0346878,80.0243338 51.2590694,79.7020895 C51.9691764,78.6823998 52.6462349,78.0402697 54.1971207,78.2570288 C56.6535778,78.6002843 58.3553559,76.1919213 57.611983,73.831584 C57.2388833,72.6468058 56.5089908,71.7606877 55.397519,71.1850218 C53.9151217,70.4170385 52.2398694,70.5669046 51.1436173,71.557007 C50.0084463,72.5824856 49.6573064,74.1448234 50.3776323,75.6829341 C50.6781124,76.3248497 50.55592,76.6846141 50.142162,77.1732333 C48.361459,79.2769329 46.6194574,81.4121495 44.7874423,83.6275519 C41.6043541,80.329426 39.9193176,76.5506137 40.5083194,72.1050152 C41.464333,64.8880733 47.9044336,60.6896789 55.137045,62.3684363 Z M80.7875215,61.276409 C87.0787161,62.8880489 92.3532888,70.1122247 91.9814677,76.6369041 C91.9419312,77.3281186 91.7757889,78.0119463 91.6309697,78.9379678 C89.318527,77.1848617 87.2386391,75.6394781 85.2071723,74.0314196 C84.9246416,73.8078046 84.798258,73.2880507 84.7422849,72.8851407 C84.4761908,70.9713183 82.8778489,69.2247036 81.1238041,68.9966118 C79.4885911,68.783741 78.3067154,69.8053416 78.2658462,71.4666738 C78.1956577,74.3215148 80.9838715,76.4524609 83.6641371,75.6157512 C83.8953592,75.5434512 84.255186,75.5906812 84.4459831,75.7319235 C86.5905066,77.3189412 88.7134849,78.9352817 90.9030978,80.5896748 C89.5290924,83.1101005 87.4756361,84.4813375 84.698084,84.7116677 C81.2346397,84.9990768 78.3129346,83.6473138 75.7772661,81.4283991 C72.1210256,78.22907 69.8665551,74.2792092 70.0495781,69.2508927 C70.2714713,63.1436729 74.8772547,59.762139 80.7875215,61.276409 Z M62.7248845,50.0833333 C66.2834798,55.5537366 69.369325,57.8303519 74.4313725,58.6202112 C69.0841991,59.8879793 67.3329668,63.4108932 67.5089622,68.5 C64.9235968,63.0802645 60.8376863,59.8701597 54.6666667,58.8671093 C59.9241652,57.9132238 62.1434513,55.4345815 62.7248845,50.0833333 Z M59.3496477,44.593442 C61.7566649,50.2882181 58.5920402,55.6709456 52.3634925,56.4757139 C46.6100963,57.2190849 40.1274498,54.0427035 37.3794758,49.0717129 C35.9689816,46.5205289 35.4755207,43.8485306 36.683495,41.0576987 C36.8118841,40.7610545 36.9847071,40.4828955 37.1829846,40.1094496 C39.6004961,41.5246712 41.9630795,42.891259 44.298422,44.3020793 C44.5170185,44.4341168 44.6340201,44.8346305 44.6771142,45.1279737 C45.0332544,47.5389779 47.5554869,49.2085917 49.9448645,48.5908764 C51.6049918,48.1617546 52.2873522,46.59491 51.4960285,45.0296058 C50.6089154,43.2750479 48.4573368,42.2970904 46.523015,42.845486 C45.8609736,43.0329792 45.3623772,42.9623392 44.7769228,42.6012167 C42.6793792,41.3079097 40.5425375,40.0768803 38.3116925,38.757826 C39.8159666,37.2165086 41.5776888,36.5558811 43.4992834,36.1973994 C49.5943064,35.0601167 56.9714344,38.9660051 59.3496477,44.593442 Z M79.67211,41.7487134 C78.5412155,42.6699224 77.4909579,43.5719214 76.3807169,44.394024 C76.1322146,44.5778292 75.6683874,44.5306773 75.3115635,44.4998975 C74.8817928,44.4630055 74.4632278,44.267194 74.0349952,44.2492938 C72.4769666,44.183805 71.6528,45.2130705 72.0241254,46.7110174 C72.3664478,48.0926126 73.9736935,49.4386256 75.436364,49.5685117 C77.2277343,49.7276494 78.1905437,48.6060447 77.5852174,46.9341159 C77.3356164,46.2449555 77.4687662,45.9035406 78.0132303,45.4907429 C79.052502,44.7024762 80.0350861,43.8406437 81.095231,42.964622 C82.9786637,45.1399413 84.2813786,47.4772363 84.3132379,50.3489198 C84.3512493,53.796468 82.1641648,56.2044909 78.685571,56.5310617 C74.8066489,56.8951793 71.6156675,55.3245398 68.8366595,52.8322547 C66.7649275,50.9743377 65.2567752,48.7282905 64.7096744,45.9380314 C63.9402179,42.0124149 65.977454,38.9977476 69.9044946,38.2684207 C72.81072,37.7287931 77.5931273,39.4002854 79.67211,41.7487134 Z" id="形状结合"></path>
            </g>
        </g>
    </g>
</svg>