<?xml version="1.0" encoding="UTF-8"?>
<svg width="64px" height="54px" viewBox="0 0 64 54" version="1.1" xmlns="http://www.w3.org/2000/svg" xmlns:xlink="http://www.w3.org/1999/xlink">
    <title>编组 3</title>
    <g id="dashboard" stroke="none" stroke-width="1" fill="none" fill-rule="evenodd">
        <g id="w-Dashboard" transform="translate(-1320.000000, -623.000000)" fill="#FFFFFF">
            <g id="编组-21" transform="translate(1150.000000, 590.000000)">
                <g id="编组-3" transform="translate(170.000000, 33.000000)">
                    <path d="M5,27 C7.76142375,27 10,29.2385763 10,32 L10,49 C10,51.7614237 7.76142375,54 5,54 C2.23857625,54 3.38176876e-16,51.7614237 0,49 L0,32 C-3.38176876e-16,29.2385763 2.23857625,27 5,27 Z" id="Rectangle-585" opacity="0.104348028"></path>
                    <path d="M23,15 C25.7614237,15 28,17.2385763 28,20 L28,49 C28,51.7614237 25.7614237,54 23,54 C20.2385763,54 18,51.7614237 18,49 L18,20 C18,17.2385763 20.2385763,15 23,15 Z" id="Rectangle-585" opacity="0.104348028"></path>
                    <path d="M59,24 C61.7614237,24 64,26.2385763 64,29 L64,49 C64,51.7614237 61.7614237,54 59,54 C56.2385763,54 54,51.7614237 54,49 L54,29 C54,26.2385763 56.2385763,24 59,24 Z" id="Rectangle-585" opacity="0.104348028"></path>
                    <path d="M41,0 C43.7614237,-5.07265313e-16 46,2.23857625 46,5 L46,49 C46,51.7614237 43.7614237,54 41,54 C38.2385763,54 36,51.7614237 36,49 L36,5 C36,2.23857625 38.2385763,5.07265313e-16 41,0 Z" id="Rectangle-585"></path>
                </g>
            </g>
        </g>
    </g>
</svg>