<?xml version="1.0" encoding="UTF-8"?>
<svg width="128px" height="88px" viewBox="0 0 128 88" version="1.1" xmlns="http://www.w3.org/2000/svg" xmlns:xlink="http://www.w3.org/1999/xlink">
    <title>编组 3</title>
    <g id="页面-1" stroke="none" stroke-width="1" fill="none" fill-rule="evenodd">
        <g id="Dashboard" transform="translate(-386.000000, -302.000000)" fill="#FFFFFF">
            <g id="容器1" transform="translate(280.000000, 158.000000)">
                <g id="编组-3" transform="translate(106.000000, 144.000000)">
                    <path d="M6,44 L10,44 C13.3137085,44 16,46.6862915 16,50 L16,82 C16,85.3137085 13.3137085,88 10,88 L6,88 C2.6862915,88 4.05812251e-16,85.3137085 0,82 L0,50 C-4.05812251e-16,46.6862915 2.6862915,44 6,44 Z" id="Rectangle-585" opacity="0.159179688"></path>
                    <path d="M34,24 L38,24 C41.3137085,24 44,26.6862915 44,30 L44,82 C44,85.3137085 41.3137085,88 38,88 L34,88 C30.6862915,88 28,85.3137085 28,82 L28,30 C28,26.6862915 30.6862915,24 34,24 Z" id="Rectangle-585" opacity="0.159179688"></path>
                    <path d="M62,39 L66,39 C69.3137085,39 72,41.6862915 72,45 L72,82 C72,85.3137085 69.3137085,88 66,88 L62,88 C58.6862915,88 56,85.3137085 56,82 L56,45 C56,41.6862915 58.6862915,39 62,39 Z" id="Rectangle-585" opacity="0.159179688"></path>
                    <path d="M90,0 L94,0 C97.3137085,-6.08718376e-16 100,2.6862915 100,6 L100,82 C100,85.3137085 97.3137085,88 94,88 L90,88 C86.6862915,88 84,85.3137085 84,82 L84,6 C84,2.6862915 86.6862915,6.08718376e-16 90,0 Z" id="Rectangle-585"></path>
                    <path d="M118,18 L122,18 C125.313708,18 128,20.6862915 128,24 L128,82 C128,85.3137085 125.313708,88 122,88 L118,88 C114.686292,88 112,85.3137085 112,82 L112,24 C112,20.6862915 114.686292,18 118,18 Z" id="Rectangle-585" opacity="0.159179688"></path>
                </g>
            </g>
        </g>
    </g>
</svg>