<?xml version="1.0" encoding="UTF-8"?>
<svg width="16px" height="16px" viewBox="0 0 16 16" version="1.1" xmlns="http://www.w3.org/2000/svg" xmlns:xlink="http://www.w3.org/1999/xlink">
    <title>切片</title>
    <defs>
        <filter color-interpolation-filters="auto" id="filter-1">
            <feColorMatrix in="SourceGraphic" type="matrix" values="0 0 0 0 1.000000 0 0 0 0 1.000000 0 0 0 0 1.000000 0 0 0 1.000000 0"></feColorMatrix>
        </filter>
    </defs>
    <g id="dashboard" stroke="none" stroke-width="1" fill="none" fill-rule="evenodd" opacity="0.45">
        <g id="w-Dashboard" transform="translate(-1112.000000, -1244.000000)">
            <g id="编组-14" transform="translate(700.000000, 1212.000000)">
                <g id="编组-15" transform="translate(24.000000, 24.000000)">
                    <g id="icon/1" transform="translate(380.000000, 0.000000)" filter="url(#filter-1)">
                        <g transform="translate(8.000000, 8.000000)">
                            <path d="M1.14295652,8.57113044 C1.77391306,8.57113044 2.28591306,9.08313044 2.28591306,9.71408695 L2.28591306,9.71408695 L2.28591306,12.5711304 C2.28591306,13.2023679 2.79763212,13.714087 3.42886957,13.714087 L3.42886957,13.714087 L6.28591305,13.714087 C6.9171505,13.714087 7.42886956,14.225806 7.42886956,14.8570435 C7.42886956,15.4882809 6.9171505,16 6.28591305,16 L6.28591305,16 L3.42886957,16 C1.53542884,16 0.000384150479,14.4652668 0,12.5718261 L0,12.5718261 L0,9.71478262 C0,9.0838261 0.511999997,8.57252174 1.14295652,8.57252174 L1.14295652,8.57252174 Z M12.5711304,0 C14.4648428,0 16,1.53515721 16,3.42886957 L16,3.42886957 L16,6.28591305 C16,6.9171505 15.4882809,7.42886956 14.8570435,7.42886956 C14.225806,7.42886956 13.714087,6.9171505 13.714087,6.28591305 L13.714087,6.28591305 L13.714087,3.42886957 C13.714087,2.79721741 13.2027826,2.28591306 12.5711304,2.28591306 L12.5711304,2.28591306 L9.71408695,2.28591306 C9.08313044,2.28591306 8.57113044,1.77391306 8.57113044,1.14226088 C8.57113044,0.511999997 9.08313044,0 9.71408695,0 L9.71408695,0 Z" id="形状结合" fill="#000000" fill-rule="nonzero"></path>
                        </g>
                    </g>
                </g>
            </g>
        </g>
    </g>
</svg>